ISO-10303-21;
HEADER;
/* Generated by software containing ST-Developer
 * from STEP Tools, Inc. (www.steptools.com) 
 */

FILE_DESCRIPTION(
/* description */ (''),
/* implementation_level */ '2;1');

FILE_NAME(
/* name */ '',
/* time_stamp */ '2026-02-04T00:43:13+08:00',
/* author */ (''),
/* organization */ (''),
/* preprocessor_version */ 'ST-DEVELOPER v20.1',
/* originating_system */ 'Autodesk Translation Framework v14.24.0.0',
/* authorisation */ '');

FILE_SCHEMA (('AUTOMOTIVE_DESIGN { 1 0 10303 214 3 1 1 }'));
ENDSEC;

DATA;
#10=MECHANICAL_DESIGN_GEOMETRIC_PRESENTATION_REPRESENTATION('',(#13),#453);
#11=SHAPE_REPRESENTATION_RELATIONSHIP('SRR','None',#459,#12);
#12=ADVANCED_BREP_SHAPE_REPRESENTATION('',(#14),#452);
#13=STYLED_ITEM('',(#468),#14);
#14=MANIFOLD_SOLID_BREP('\X2\630994AE\X0\',#229);
#15=(
BOUNDED_SURFACE()
B_SPLINE_SURFACE(2,2,((#374,#375,#376,#377,#378,#379,#380,#381,#382),(#383,
#384,#385,#386,#387,#388,#389,#390,#391),(#392,#393,#394,#395,#396,#397,
#398,#399,#400)),.UNSPECIFIED.,.F.,.T.,.F.)
B_SPLINE_SURFACE_WITH_KNOTS((3,3),(3,2,2,2,3),(-9.86076664007169E-32,1.57079632679494),
(-3.14159265358979,-1.5707963267949,0.,1.5707963267949,3.14159265358979),
 .UNSPECIFIED.)
GEOMETRIC_REPRESENTATION_ITEM()
RATIONAL_B_SPLINE_SURFACE(((1.,0.707106781186548,1.,0.707106781186548,1.,
0.707106781186548,1.,0.707106781186548,1.),(0.707106781186514,0.499999999999976,
0.707106781186514,0.499999999999976,0.707106781186514,0.499999999999976,
0.707106781186514,0.499999999999976,0.707106781186514),(1.,0.707106781186548,
1.,0.707106781186548,1.,0.707106781186548,1.,0.707106781186548,1.)))
REPRESENTATION_ITEM('')
SURFACE()
);
#16=(
BOUNDED_SURFACE()
B_SPLINE_SURFACE(2,2,((#414,#415,#416,#417,#418,#419,#420,#421,#422),(#423,
#424,#425,#426,#427,#428,#429,#430,#431),(#432,#433,#434,#435,#436,#437,
#438,#439,#440)),.UNSPECIFIED.,.F.,.T.,.F.)
B_SPLINE_SURFACE_WITH_KNOTS((3,3),(3,2,2,2,3),(-9.86076664007161E-32,1.57079632679494),
(-3.14159265358979,-1.5707963267949,0.,1.5707963267949,3.14159265358979),
 .UNSPECIFIED.)
GEOMETRIC_REPRESENTATION_ITEM()
RATIONAL_B_SPLINE_SURFACE(((1.,0.707106781186548,1.,0.707106781186548,1.,
0.707106781186548,1.,0.707106781186548,1.),(0.707106781186529,0.499999999999987,
0.707106781186529,0.499999999999987,0.707106781186529,0.499999999999987,
0.707106781186529,0.499999999999987,0.707106781186529),(1.,0.707106781186548,
1.,0.707106781186548,1.,0.707106781186548,1.,0.707106781186548,1.)))
REPRESENTATION_ITEM('')
SURFACE()
);
#17=CYLINDRICAL_SURFACE('',#237,1.25);
#18=CYLINDRICAL_SURFACE('',#244,1.25);
#19=CYLINDRICAL_SURFACE('',#245,1.00000054);
#20=CYLINDRICAL_SURFACE('',#250,1.00000054);
#21=CYLINDRICAL_SURFACE('',#253,1.00000054);
#22=CYLINDRICAL_SURFACE('',#258,1.00000054);
#23=FACE_BOUND('',#44,.T.);
#24=FACE_BOUND('',#45,.T.);
#25=FACE_BOUND('',#49,.T.);
#26=FACE_BOUND('',#50,.T.);
#27=FACE_OUTER_BOUND('',#43,.T.);
#28=FACE_OUTER_BOUND('',#46,.T.);
#29=FACE_OUTER_BOUND('',#47,.T.);
#30=FACE_OUTER_BOUND('',#48,.T.);
#31=FACE_OUTER_BOUND('',#51,.T.);
#32=FACE_OUTER_BOUND('',#52,.T.);
#33=FACE_OUTER_BOUND('',#53,.T.);
#34=FACE_OUTER_BOUND('',#54,.T.);
#35=FACE_OUTER_BOUND('',#55,.T.);
#36=FACE_OUTER_BOUND('',#56,.T.);
#37=FACE_OUTER_BOUND('',#57,.T.);
#38=FACE_OUTER_BOUND('',#58,.T.);
#39=FACE_OUTER_BOUND('',#59,.T.);
#40=FACE_OUTER_BOUND('',#60,.T.);
#41=FACE_OUTER_BOUND('',#61,.T.);
#42=FACE_OUTER_BOUND('',#62,.T.);
#43=EDGE_LOOP('',(#149,#150,#151,#152));
#44=EDGE_LOOP('',(#153));
#45=EDGE_LOOP('',(#154));
#46=EDGE_LOOP('',(#155,#156,#157,#158));
#47=EDGE_LOOP('',(#159,#160,#161,#162));
#48=EDGE_LOOP('',(#163,#164,#165,#166));
#49=EDGE_LOOP('',(#167));
#50=EDGE_LOOP('',(#168));
#51=EDGE_LOOP('',(#169,#170,#171,#172));
#52=EDGE_LOOP('',(#173,#174,#175,#176));
#53=EDGE_LOOP('',(#177,#178,#179,#180));
#54=EDGE_LOOP('',(#181,#182,#183,#184));
#55=EDGE_LOOP('',(#185));
#56=EDGE_LOOP('',(#186,#187,#188,#189));
#57=EDGE_LOOP('',(#190));
#58=EDGE_LOOP('',(#191,#192,#193,#194));
#59=EDGE_LOOP('',(#195,#196,#197,#198));
#60=EDGE_LOOP('',(#199));
#61=EDGE_LOOP('',(#200,#201,#202,#203));
#62=EDGE_LOOP('',(#204));
#63=LINE('',#341,#75);
#64=LINE('',#344,#76);
#65=LINE('',#351,#77);
#66=LINE('',#353,#78);
#67=LINE('',#354,#79);
#68=LINE('',#357,#80);
#69=LINE('',#362,#81);
#70=LINE('',#368,#82);
#71=LINE('',#373,#83);
#72=LINE('',#407,#84);
#73=LINE('',#413,#85);
#74=LINE('',#447,#86);
#75=VECTOR('',#267,10.);
#76=VECTOR('',#270,10.);
#77=VECTOR('',#277,10.);
#78=VECTOR('',#278,10.);
#79=VECTOR('',#279,10.);
#80=VECTOR('',#282,10.);
#81=VECTOR('',#289,10.);
#82=VECTOR('',#296,10.);
#83=VECTOR('',#303,1.00000054);
#84=VECTOR('',#312,1.00000054);
#85=VECTOR('',#321,1.00000054);
#86=VECTOR('',#330,1.00000054);
#87=CIRCLE('',#232,1.25);
#88=CIRCLE('',#233,1.25);
#89=CIRCLE('',#234,1.00000054);
#90=CIRCLE('',#235,1.00000054);
#91=CIRCLE('',#238,1.25);
#92=CIRCLE('',#240,1.25);
#93=CIRCLE('',#241,1.00000054);
#94=CIRCLE('',#242,1.00000054);
#95=CIRCLE('',#246,1.00000054);
#96=CIRCLE('',#247,0.50000054);
#97=CIRCLE('',#248,0.5);
#98=CIRCLE('',#251,1.00000054);
#99=CIRCLE('',#254,1.00000054);
#100=CIRCLE('',#255,0.50000054);
#101=CIRCLE('',#256,0.5);
#102=CIRCLE('',#259,1.00000054);
#103=VERTEX_POINT('',#337);
#104=VERTEX_POINT('',#338);
#105=VERTEX_POINT('',#340);
#106=VERTEX_POINT('',#342);
#107=VERTEX_POINT('',#345);
#108=VERTEX_POINT('',#347);
#109=VERTEX_POINT('',#350);
#110=VERTEX_POINT('',#352);
#111=VERTEX_POINT('',#356);
#112=VERTEX_POINT('',#360);
#113=VERTEX_POINT('',#363);
#114=VERTEX_POINT('',#365);
#115=VERTEX_POINT('',#371);
#116=VERTEX_POINT('',#401);
#117=VERTEX_POINT('',#406);
#118=VERTEX_POINT('',#411);
#119=VERTEX_POINT('',#441);
#120=VERTEX_POINT('',#446);
#121=EDGE_CURVE('',#103,#104,#87,.T.);
#122=EDGE_CURVE('',#105,#103,#63,.T.);
#123=EDGE_CURVE('',#106,#105,#88,.T.);
#124=EDGE_CURVE('',#104,#106,#64,.T.);
#125=EDGE_CURVE('',#107,#107,#89,.T.);
#126=EDGE_CURVE('',#108,#108,#90,.T.);
#127=EDGE_CURVE('',#109,#106,#65,.T.);
#128=EDGE_CURVE('',#110,#109,#66,.T.);
#129=EDGE_CURVE('',#110,#104,#67,.T.);
#130=EDGE_CURVE('',#111,#105,#68,.T.);
#131=EDGE_CURVE('',#109,#111,#91,.T.);
#132=EDGE_CURVE('',#112,#110,#92,.T.);
#133=EDGE_CURVE('',#111,#112,#69,.T.);
#134=EDGE_CURVE('',#113,#113,#93,.T.);
#135=EDGE_CURVE('',#114,#114,#94,.T.);
#136=EDGE_CURVE('',#112,#103,#70,.T.);
#137=EDGE_CURVE('',#115,#115,#95,.T.);
#138=EDGE_CURVE('',#115,#114,#71,.T.);
#139=EDGE_CURVE('',#116,#116,#96,.T.);
#140=EDGE_CURVE('',#116,#115,#97,.T.);
#141=EDGE_CURVE('',#108,#117,#72,.T.);
#142=EDGE_CURVE('',#117,#117,#98,.T.);
#143=EDGE_CURVE('',#118,#118,#99,.T.);
#144=EDGE_CURVE('',#118,#113,#73,.T.);
#145=EDGE_CURVE('',#119,#119,#100,.T.);
#146=EDGE_CURVE('',#119,#118,#101,.T.);
#147=EDGE_CURVE('',#107,#120,#74,.T.);
#148=EDGE_CURVE('',#120,#120,#102,.T.);
#149=ORIENTED_EDGE('',*,*,#121,.F.);
#150=ORIENTED_EDGE('',*,*,#122,.F.);
#151=ORIENTED_EDGE('',*,*,#123,.F.);
#152=ORIENTED_EDGE('',*,*,#124,.F.);
#153=ORIENTED_EDGE('',*,*,#125,.F.);
#154=ORIENTED_EDGE('',*,*,#126,.F.);
#155=ORIENTED_EDGE('',*,*,#124,.T.);
#156=ORIENTED_EDGE('',*,*,#127,.F.);
#157=ORIENTED_EDGE('',*,*,#128,.F.);
#158=ORIENTED_EDGE('',*,*,#129,.T.);
#159=ORIENTED_EDGE('',*,*,#123,.T.);
#160=ORIENTED_EDGE('',*,*,#130,.F.);
#161=ORIENTED_EDGE('',*,*,#131,.F.);
#162=ORIENTED_EDGE('',*,*,#127,.T.);
#163=ORIENTED_EDGE('',*,*,#132,.T.);
#164=ORIENTED_EDGE('',*,*,#128,.T.);
#165=ORIENTED_EDGE('',*,*,#131,.T.);
#166=ORIENTED_EDGE('',*,*,#133,.T.);
#167=ORIENTED_EDGE('',*,*,#134,.F.);
#168=ORIENTED_EDGE('',*,*,#135,.F.);
#169=ORIENTED_EDGE('',*,*,#122,.T.);
#170=ORIENTED_EDGE('',*,*,#136,.F.);
#171=ORIENTED_EDGE('',*,*,#133,.F.);
#172=ORIENTED_EDGE('',*,*,#130,.T.);
#173=ORIENTED_EDGE('',*,*,#121,.T.);
#174=ORIENTED_EDGE('',*,*,#129,.F.);
#175=ORIENTED_EDGE('',*,*,#132,.F.);
#176=ORIENTED_EDGE('',*,*,#136,.T.);
#177=ORIENTED_EDGE('',*,*,#137,.F.);
#178=ORIENTED_EDGE('',*,*,#138,.T.);
#179=ORIENTED_EDGE('',*,*,#135,.T.);
#180=ORIENTED_EDGE('',*,*,#138,.F.);
#181=ORIENTED_EDGE('',*,*,#139,.T.);
#182=ORIENTED_EDGE('',*,*,#140,.T.);
#183=ORIENTED_EDGE('',*,*,#137,.T.);
#184=ORIENTED_EDGE('',*,*,#140,.F.);
#185=ORIENTED_EDGE('',*,*,#139,.F.);
#186=ORIENTED_EDGE('',*,*,#126,.T.);
#187=ORIENTED_EDGE('',*,*,#141,.T.);
#188=ORIENTED_EDGE('',*,*,#142,.F.);
#189=ORIENTED_EDGE('',*,*,#141,.F.);
#190=ORIENTED_EDGE('',*,*,#142,.T.);
#191=ORIENTED_EDGE('',*,*,#143,.F.);
#192=ORIENTED_EDGE('',*,*,#144,.T.);
#193=ORIENTED_EDGE('',*,*,#134,.T.);
#194=ORIENTED_EDGE('',*,*,#144,.F.);
#195=ORIENTED_EDGE('',*,*,#145,.T.);
#196=ORIENTED_EDGE('',*,*,#146,.T.);
#197=ORIENTED_EDGE('',*,*,#143,.T.);
#198=ORIENTED_EDGE('',*,*,#146,.F.);
#199=ORIENTED_EDGE('',*,*,#145,.F.);
#200=ORIENTED_EDGE('',*,*,#125,.T.);
#201=ORIENTED_EDGE('',*,*,#147,.T.);
#202=ORIENTED_EDGE('',*,*,#148,.F.);
#203=ORIENTED_EDGE('',*,*,#147,.F.);
#204=ORIENTED_EDGE('',*,*,#148,.T.);
#205=PLANE('',#231);
#206=PLANE('',#236);
#207=PLANE('',#239);
#208=PLANE('',#243);
#209=PLANE('',#249);
#210=PLANE('',#252);
#211=PLANE('',#257);
#212=PLANE('',#260);
#213=ADVANCED_FACE('',(#27,#23,#24),#205,.T.);
#214=ADVANCED_FACE('',(#28),#206,.T.);
#215=ADVANCED_FACE('',(#29),#17,.T.);
#216=ADVANCED_FACE('',(#30,#25,#26),#207,.F.);
#217=ADVANCED_FACE('',(#31),#208,.T.);
#218=ADVANCED_FACE('',(#32),#18,.T.);
#219=ADVANCED_FACE('',(#33),#19,.T.);
#220=ADVANCED_FACE('',(#34),#15,.F.);
#221=ADVANCED_FACE('',(#35),#209,.T.);
#222=ADVANCED_FACE('',(#36),#20,.T.);
#223=ADVANCED_FACE('',(#37),#210,.F.);
#224=ADVANCED_FACE('',(#38),#21,.T.);
#225=ADVANCED_FACE('',(#39),#16,.F.);
#226=ADVANCED_FACE('',(#40),#211,.T.);
#227=ADVANCED_FACE('',(#41),#22,.T.);
#228=ADVANCED_FACE('',(#42),#212,.F.);
#229=CLOSED_SHELL('',(#213,#214,#215,#216,#217,#218,#219,#220,#221,#222,
#223,#224,#225,#226,#227,#228));
#230=AXIS2_PLACEMENT_3D('',#335,#261,#262);
#231=AXIS2_PLACEMENT_3D('',#336,#263,#264);
#232=AXIS2_PLACEMENT_3D('',#339,#265,#266);
#233=AXIS2_PLACEMENT_3D('',#343,#268,#269);
#234=AXIS2_PLACEMENT_3D('',#346,#271,#272);
#235=AXIS2_PLACEMENT_3D('',#348,#273,#274);
#236=AXIS2_PLACEMENT_3D('',#349,#275,#276);
#237=AXIS2_PLACEMENT_3D('',#355,#280,#281);
#238=AXIS2_PLACEMENT_3D('',#358,#283,#284);
#239=AXIS2_PLACEMENT_3D('',#359,#285,#286);
#240=AXIS2_PLACEMENT_3D('',#361,#287,#288);
#241=AXIS2_PLACEMENT_3D('',#364,#290,#291);
#242=AXIS2_PLACEMENT_3D('',#366,#292,#293);
#243=AXIS2_PLACEMENT_3D('',#367,#294,#295);
#244=AXIS2_PLACEMENT_3D('',#369,#297,#298);
#245=AXIS2_PLACEMENT_3D('',#370,#299,#300);
#246=AXIS2_PLACEMENT_3D('',#372,#301,#302);
#247=AXIS2_PLACEMENT_3D('',#402,#304,#305);
#248=AXIS2_PLACEMENT_3D('',#403,#306,#307);
#249=AXIS2_PLACEMENT_3D('',#404,#308,#309);
#250=AXIS2_PLACEMENT_3D('',#405,#310,#311);
#251=AXIS2_PLACEMENT_3D('',#408,#313,#314);
#252=AXIS2_PLACEMENT_3D('',#409,#315,#316);
#253=AXIS2_PLACEMENT_3D('',#410,#317,#318);
#254=AXIS2_PLACEMENT_3D('',#412,#319,#320);
#255=AXIS2_PLACEMENT_3D('',#442,#322,#323);
#256=AXIS2_PLACEMENT_3D('',#443,#324,#325);
#257=AXIS2_PLACEMENT_3D('',#444,#326,#327);
#258=AXIS2_PLACEMENT_3D('',#445,#328,#329);
#259=AXIS2_PLACEMENT_3D('',#448,#331,#332);
#260=AXIS2_PLACEMENT_3D('',#449,#333,#334);
#261=DIRECTION('axis',(0.,0.,1.));
#262=DIRECTION('refdir',(1.,0.,0.));
#263=DIRECTION('center_axis',(0.,0.,-1.));
#264=DIRECTION('ref_axis',(1.,0.,0.));
#265=DIRECTION('center_axis',(0.,0.,1.));
#266=DIRECTION('ref_axis',(1.,0.,0.));
#267=DIRECTION('',(-1.,-8.67361737988403E-17,0.));
#268=DIRECTION('center_axis',(0.,0.,1.));
#269=DIRECTION('ref_axis',(1.,0.,0.));
#270=DIRECTION('',(1.,-8.67361737988403E-17,0.));
#271=DIRECTION('center_axis',(0.,0.,-1.));
#272=DIRECTION('ref_axis',(0.999999999999966,2.62268329720375E-7,0.));
#273=DIRECTION('center_axis',(0.,0.,-1.));
#274=DIRECTION('ref_axis',(0.999999999999966,2.62268329720375E-7,0.));
#275=DIRECTION('center_axis',(-8.67361737988403E-17,-1.,0.));
#276=DIRECTION('ref_axis',(-1.,8.67361737988403E-17,0.));
#277=DIRECTION('',(0.,0.,-1.));
#278=DIRECTION('',(1.,-8.67361737988403E-17,0.));
#279=DIRECTION('',(0.,0.,-1.));
#280=DIRECTION('center_axis',(0.,0.,-1.));
#281=DIRECTION('ref_axis',(1.,0.,0.));
#282=DIRECTION('',(0.,0.,-1.));
#283=DIRECTION('center_axis',(0.,0.,1.));
#284=DIRECTION('ref_axis',(1.,0.,0.));
#285=DIRECTION('center_axis',(0.,0.,-1.));
#286=DIRECTION('ref_axis',(1.,0.,0.));
#287=DIRECTION('center_axis',(0.,0.,1.));
#288=DIRECTION('ref_axis',(1.,0.,0.));
#289=DIRECTION('',(-1.,-8.67361737988403E-17,0.));
#290=DIRECTION('center_axis',(0.,0.,1.));
#291=DIRECTION('ref_axis',(0.999999999999966,2.62268329720375E-7,0.));
#292=DIRECTION('center_axis',(0.,0.,1.));
#293=DIRECTION('ref_axis',(0.999999999999966,2.62268329720375E-7,0.));
#294=DIRECTION('center_axis',(-8.67361737988403E-17,1.,0.));
#295=DIRECTION('ref_axis',(1.,8.67361737988403E-17,0.));
#296=DIRECTION('',(0.,0.,-1.));
#297=DIRECTION('center_axis',(0.,0.,-1.));
#298=DIRECTION('ref_axis',(-1.,-1.22464679914735E-16,0.));
#299=DIRECTION('center_axis',(0.,0.,1.));
#300=DIRECTION('ref_axis',(0.999999999999966,2.62268329720375E-7,0.));
#301=DIRECTION('center_axis',(-4.93038065763099E-32,2.0999703771835E-38,
1.));
#302=DIRECTION('ref_axis',(0.999999999999966,2.62268329759986E-7,0.));
#303=DIRECTION('',(0.,0.,-1.));
#304=DIRECTION('center_axis',(4.93038065763099E-32,-2.0999703771835E-38,
-1.));
#305=DIRECTION('ref_axis',(0.999999999999966,2.62268329759986E-7,4.93038065763027E-32));
#306=DIRECTION('center_axis',(0.,-1.,2.0999703771835E-38));
#307=DIRECTION('ref_axis',(-1.,0.,0.));
#308=DIRECTION('center_axis',(-4.93038065763099E-32,2.0999703771835E-38,
1.));
#309=DIRECTION('ref_axis',(1.,0.,4.93038065763099E-32));
#310=DIRECTION('center_axis',(0.,0.,1.));
#311=DIRECTION('ref_axis',(0.999999999999966,2.62268329720375E-7,0.));
#312=DIRECTION('',(0.,0.,-1.));
#313=DIRECTION('center_axis',(0.,0.,-1.));
#314=DIRECTION('ref_axis',(0.999999999999966,2.62268329720375E-7,0.));
#315=DIRECTION('center_axis',(0.,0.,1.));
#316=DIRECTION('ref_axis',(-0.999999999999966,-2.62268329720375E-7,0.));
#317=DIRECTION('center_axis',(0.,0.,1.));
#318=DIRECTION('ref_axis',(0.999999999999966,2.62268329720375E-7,0.));
#319=DIRECTION('center_axis',(-4.93038065763099E-32,2.0999703771835E-38,
1.));
#320=DIRECTION('ref_axis',(0.999999999999966,2.62268329759986E-7,0.));
#321=DIRECTION('',(0.,0.,-1.));
#322=DIRECTION('center_axis',(4.93038065763099E-32,-2.0999703771835E-38,
-1.));
#323=DIRECTION('ref_axis',(0.999999999999966,2.62268329759986E-7,4.93038065763027E-32));
#324=DIRECTION('center_axis',(0.,-1.,2.0999703771835E-38));
#325=DIRECTION('ref_axis',(-1.,0.,0.));
#326=DIRECTION('center_axis',(-4.93038065763099E-32,2.0999703771835E-38,
1.));
#327=DIRECTION('ref_axis',(1.,0.,4.93038065763099E-32));
#328=DIRECTION('center_axis',(0.,0.,1.));
#329=DIRECTION('ref_axis',(0.999999999999966,2.62268329720375E-7,0.));
#330=DIRECTION('',(0.,0.,-1.));
#331=DIRECTION('center_axis',(0.,0.,-1.));
#332=DIRECTION('ref_axis',(0.999999999999966,2.62268329720375E-7,0.));
#333=DIRECTION('center_axis',(0.,0.,1.));
#334=DIRECTION('ref_axis',(-0.999999999999966,-2.62268329720375E-7,0.));
#335=CARTESIAN_POINT('',(0.,0.,0.));
#336=CARTESIAN_POINT('Origin',(73.9500009558987,5.2580428860345,9.11000000000002));
#337=CARTESIAN_POINT('',(67.5500009558987,6.5080428860345,9.11000000000002));
#338=CARTESIAN_POINT('',(67.5500009558987,4.0080428860345,9.11000000000002));
#339=CARTESIAN_POINT('Origin',(67.5500009558987,5.2580428860345,9.11000000000002));
#340=CARTESIAN_POINT('',(80.3500009558987,6.5080428860345,9.11000000000002));
#341=CARTESIAN_POINT('',(70.7500009558987,6.5080428860345,9.11000000000002));
#342=CARTESIAN_POINT('',(80.3500009558987,4.0080428860345,9.11000000000002));
#343=CARTESIAN_POINT('Origin',(80.3500009558987,5.2580428860345,9.11000000000002));
#344=CARTESIAN_POINT('',(77.1500009558987,4.0080428860345,9.11000000000002));
#345=CARTESIAN_POINT('',(79.3500004158987,5.25804262376603,9.11000000000002));
#346=CARTESIAN_POINT('Origin',(80.3500009558987,5.2580428860345,9.11000000000002));
#347=CARTESIAN_POINT('',(66.5500004158988,5.25804262376603,9.11000000000002));
#348=CARTESIAN_POINT('Origin',(67.5500009558987,5.2580428860345,9.11000000000002));
#349=CARTESIAN_POINT('Origin',(80.3500009558987,4.0080428860345,11.11));
#350=CARTESIAN_POINT('',(80.3500009558987,4.0080428860345,10.11));
#351=CARTESIAN_POINT('',(80.3500009558987,4.0080428860345,11.11));
#352=CARTESIAN_POINT('',(67.5500009558987,4.0080428860345,10.11));
#353=CARTESIAN_POINT('',(77.1500009558987,4.0080428860345,10.11));
#354=CARTESIAN_POINT('',(67.5500009558987,4.0080428860345,11.11));
#355=CARTESIAN_POINT('Origin',(80.3500009558987,5.2580428860345,11.11));
#356=CARTESIAN_POINT('',(80.3500009558987,6.5080428860345,10.11));
#357=CARTESIAN_POINT('',(80.3500009558987,6.5080428860345,11.11));
#358=CARTESIAN_POINT('Origin',(80.3500009558987,5.2580428860345,10.11));
#359=CARTESIAN_POINT('Origin',(73.9500009558987,5.2580428860345,10.11));
#360=CARTESIAN_POINT('',(67.5500009558987,6.5080428860345,10.11));
#361=CARTESIAN_POINT('Origin',(67.5500009558987,5.2580428860345,10.11));
#362=CARTESIAN_POINT('',(70.7500009558987,6.5080428860345,10.11));
#363=CARTESIAN_POINT('',(79.3500004158987,5.25804262376603,10.11));
#364=CARTESIAN_POINT('Origin',(80.3500009558987,5.2580428860345,10.11));
#365=CARTESIAN_POINT('',(66.5500004158988,5.25804262376603,10.11));
#366=CARTESIAN_POINT('Origin',(67.5500009558987,5.2580428860345,10.11));
#367=CARTESIAN_POINT('Origin',(67.5500009558987,6.5080428860345,11.11));
#368=CARTESIAN_POINT('',(67.5500009558987,6.5080428860345,11.11));
#369=CARTESIAN_POINT('Origin',(67.5500009558987,5.2580428860345,11.11));
#370=CARTESIAN_POINT('Origin',(67.5500009558987,5.2580428860345,3.9000004));
#371=CARTESIAN_POINT('',(66.5500004158988,5.25804262376603,14.11));
#372=CARTESIAN_POINT('Origin',(67.5500009558987,5.2580428860345,14.11));
#373=CARTESIAN_POINT('',(66.5500004158988,5.25804262376603,3.9000004));
#374=CARTESIAN_POINT('Ctrl Pts',(66.5500004158987,5.2580428860345,14.11));
#375=CARTESIAN_POINT('Ctrl Pts',(66.5500004158987,4.25804234603451,14.11));
#376=CARTESIAN_POINT('Ctrl Pts',(67.5500009558987,4.25804234603451,14.11));
#377=CARTESIAN_POINT('Ctrl Pts',(68.5500014958987,4.25804234603451,14.11));
#378=CARTESIAN_POINT('Ctrl Pts',(68.5500014958987,5.2580428860345,14.11));
#379=CARTESIAN_POINT('Ctrl Pts',(68.5500014958987,6.2580434260345,14.11));
#380=CARTESIAN_POINT('Ctrl Pts',(67.5500009558987,6.2580434260345,14.11));
#381=CARTESIAN_POINT('Ctrl Pts',(66.5500004158987,6.2580434260345,14.11));
#382=CARTESIAN_POINT('Ctrl Pts',(66.5500004158987,5.2580428860345,14.11));
#383=CARTESIAN_POINT('Ctrl Pts',(66.5500004158987,5.2580428860345,14.61));
#384=CARTESIAN_POINT('Ctrl Pts',(66.5500004158987,4.25804234603451,14.61));
#385=CARTESIAN_POINT('Ctrl Pts',(67.5500009558987,4.25804234603451,14.61));
#386=CARTESIAN_POINT('Ctrl Pts',(68.5500014958987,4.25804234603451,14.61));
#387=CARTESIAN_POINT('Ctrl Pts',(68.5500014958987,5.2580428860345,14.61));
#388=CARTESIAN_POINT('Ctrl Pts',(68.5500014958987,6.2580434260345,14.61));
#389=CARTESIAN_POINT('Ctrl Pts',(67.5500009558987,6.2580434260345,14.61));
#390=CARTESIAN_POINT('Ctrl Pts',(66.5500004158987,6.2580434260345,14.61));
#391=CARTESIAN_POINT('Ctrl Pts',(66.5500004158987,5.2580428860345,14.61));
#392=CARTESIAN_POINT('Ctrl Pts',(67.0500004158987,5.2580428860345,14.61));
#393=CARTESIAN_POINT('Ctrl Pts',(67.0500004158987,4.75804234603452,14.61));
#394=CARTESIAN_POINT('Ctrl Pts',(67.5500009558987,4.75804234603452,14.61));
#395=CARTESIAN_POINT('Ctrl Pts',(68.0500014958987,4.75804234603452,14.61));
#396=CARTESIAN_POINT('Ctrl Pts',(68.0500014958987,5.2580428860345,14.61));
#397=CARTESIAN_POINT('Ctrl Pts',(68.0500014958987,5.75804342603448,14.61));
#398=CARTESIAN_POINT('Ctrl Pts',(67.5500009558987,5.75804342603448,14.61));
#399=CARTESIAN_POINT('Ctrl Pts',(67.0500004158987,5.75804342603448,14.61));
#400=CARTESIAN_POINT('Ctrl Pts',(67.0500004158987,5.2580428860345,14.61));
#401=CARTESIAN_POINT('',(67.0500004158987,5.2580427549002,14.61));
#402=CARTESIAN_POINT('Origin',(67.5500009558987,5.2580428860345,14.61));
#403=CARTESIAN_POINT('Origin',(67.0500004158987,5.2580428860345,14.11));
#404=CARTESIAN_POINT('Origin',(67.5500009558987,5.2580428860345,14.61));
#405=CARTESIAN_POINT('Origin',(67.5500009558987,5.2580428860345,3.9000004));
#406=CARTESIAN_POINT('',(66.5500004158988,5.25804262376603,3.9000004));
#407=CARTESIAN_POINT('',(66.5500004158988,5.25804262376603,3.9000004));
#408=CARTESIAN_POINT('Origin',(67.5500009558987,5.2580428860345,3.9000004));
#409=CARTESIAN_POINT('Origin',(67.5500009558987,5.2580428860345,3.9000004));
#410=CARTESIAN_POINT('Origin',(80.3500009558987,5.2580428860345,3.9000004));
#411=CARTESIAN_POINT('',(79.3500004158987,5.25804262376603,14.11));
#412=CARTESIAN_POINT('Origin',(80.3500009558987,5.2580428860345,14.11));
#413=CARTESIAN_POINT('',(79.3500004158987,5.25804262376603,3.9000004));
#414=CARTESIAN_POINT('Ctrl Pts',(79.3500004158987,5.2580428860345,14.11));
#415=CARTESIAN_POINT('Ctrl Pts',(79.3500004158987,4.2580423460345,14.11));
#416=CARTESIAN_POINT('Ctrl Pts',(80.3500009558987,4.2580423460345,14.11));
#417=CARTESIAN_POINT('Ctrl Pts',(81.3500014958987,4.2580423460345,14.11));
#418=CARTESIAN_POINT('Ctrl Pts',(81.3500014958987,5.2580428860345,14.11));
#419=CARTESIAN_POINT('Ctrl Pts',(81.3500014958987,6.25804342603451,14.11));
#420=CARTESIAN_POINT('Ctrl Pts',(80.3500009558987,6.25804342603451,14.11));
#421=CARTESIAN_POINT('Ctrl Pts',(79.3500004158987,6.25804342603451,14.11));
#422=CARTESIAN_POINT('Ctrl Pts',(79.3500004158987,5.2580428860345,14.11));
#423=CARTESIAN_POINT('Ctrl Pts',(79.3500004158987,5.2580428860345,14.61));
#424=CARTESIAN_POINT('Ctrl Pts',(79.3500004158987,4.2580423460345,14.61));
#425=CARTESIAN_POINT('Ctrl Pts',(80.3500009558987,4.2580423460345,14.61));
#426=CARTESIAN_POINT('Ctrl Pts',(81.3500014958987,4.2580423460345,14.61));
#427=CARTESIAN_POINT('Ctrl Pts',(81.3500014958987,5.2580428860345,14.61));
#428=CARTESIAN_POINT('Ctrl Pts',(81.3500014958987,6.25804342603451,14.61));
#429=CARTESIAN_POINT('Ctrl Pts',(80.3500009558987,6.25804342603451,14.61));
#430=CARTESIAN_POINT('Ctrl Pts',(79.3500004158987,6.25804342603451,14.61));
#431=CARTESIAN_POINT('Ctrl Pts',(79.3500004158987,5.2580428860345,14.61));
#432=CARTESIAN_POINT('Ctrl Pts',(79.8500004158987,5.2580428860345,14.61));
#433=CARTESIAN_POINT('Ctrl Pts',(79.8500004158987,4.75804234603452,14.61));
#434=CARTESIAN_POINT('Ctrl Pts',(80.3500009558987,4.75804234603452,14.61));
#435=CARTESIAN_POINT('Ctrl Pts',(80.8500014958987,4.75804234603452,14.61));
#436=CARTESIAN_POINT('Ctrl Pts',(80.8500014958987,5.2580428860345,14.61));
#437=CARTESIAN_POINT('Ctrl Pts',(80.8500014958987,5.75804342603448,14.61));
#438=CARTESIAN_POINT('Ctrl Pts',(80.3500009558987,5.75804342603448,14.61));
#439=CARTESIAN_POINT('Ctrl Pts',(79.8500004158987,5.75804342603448,14.61));
#440=CARTESIAN_POINT('Ctrl Pts',(79.8500004158987,5.2580428860345,14.61));
#441=CARTESIAN_POINT('',(79.8500004158987,5.2580427549002,14.61));
#442=CARTESIAN_POINT('Origin',(80.3500009558987,5.2580428860345,14.61));
#443=CARTESIAN_POINT('Origin',(79.8500004158987,5.2580428860345,14.11));
#444=CARTESIAN_POINT('Origin',(80.3500009558987,5.2580428860345,14.61));
#445=CARTESIAN_POINT('Origin',(80.3500009558987,5.2580428860345,3.9000004));
#446=CARTESIAN_POINT('',(79.3500004158987,5.25804262376603,3.9000004));
#447=CARTESIAN_POINT('',(79.3500004158987,5.25804262376603,3.9000004));
#448=CARTESIAN_POINT('Origin',(80.3500009558987,5.2580428860345,3.9000004));
#449=CARTESIAN_POINT('Origin',(80.3500009558987,5.2580428860345,3.9000004));
#450=UNCERTAINTY_MEASURE_WITH_UNIT(LENGTH_MEASURE(0.01),#454,
'DISTANCE_ACCURACY_VALUE',
'Maximum model space distance between geometric entities at asserted c
onnectivities');
#451=UNCERTAINTY_MEASURE_WITH_UNIT(LENGTH_MEASURE(0.01),#454,
'DISTANCE_ACCURACY_VALUE',
'Maximum model space distance between geometric entities at asserted c
onnectivities');
#452=(
GEOMETRIC_REPRESENTATION_CONTEXT(3)
GLOBAL_UNCERTAINTY_ASSIGNED_CONTEXT((#450))
GLOBAL_UNIT_ASSIGNED_CONTEXT((#454,#455,#456))
REPRESENTATION_CONTEXT('','3D')
);
#453=(
GEOMETRIC_REPRESENTATION_CONTEXT(3)
GLOBAL_UNCERTAINTY_ASSIGNED_CONTEXT((#451))
GLOBAL_UNIT_ASSIGNED_CONTEXT((#454,#455,#456))
REPRESENTATION_CONTEXT('','3D')
);
#454=(
LENGTH_UNIT()
NAMED_UNIT(*)
SI_UNIT(.MILLI.,.METRE.)
);
#455=(
NAMED_UNIT(*)
PLANE_ANGLE_UNIT()
SI_UNIT($,.RADIAN.)
);
#456=(
NAMED_UNIT(*)
SI_UNIT($,.STERADIAN.)
SOLID_ANGLE_UNIT()
);
#457=SHAPE_DEFINITION_REPRESENTATION(#458,#459);
#458=PRODUCT_DEFINITION_SHAPE('',$,#461);
#459=SHAPE_REPRESENTATION('',(#230),#452);
#460=PRODUCT_DEFINITION_CONTEXT('part definition',#465,'design');
#461=PRODUCT_DEFINITION('Tuya-T5AI-Box','Tuya-T5AI-Box v10',#462,#460);
#462=PRODUCT_DEFINITION_FORMATION('',$,#467);
#463=PRODUCT_RELATED_PRODUCT_CATEGORY('Tuya-T5AI-Box v10',
'Tuya-T5AI-Box v10',(#467));
#464=APPLICATION_PROTOCOL_DEFINITION('international standard',
'automotive_design',2009,#465);
#465=APPLICATION_CONTEXT(
'Core Data for Automotive Mechanical Design Process');
#466=PRODUCT_CONTEXT('part definition',#465,'mechanical');
#467=PRODUCT('Tuya-T5AI-Box','Tuya-T5AI-Box v10',$,(#466));
#468=PRESENTATION_STYLE_ASSIGNMENT((#469));
#469=SURFACE_STYLE_USAGE(.BOTH.,#470);
#470=SURFACE_SIDE_STYLE('',(#471));
#471=SURFACE_STYLE_FILL_AREA(#472);
#472=FILL_AREA_STYLE(
'PA 11 - \X2\5C3C9F99\X0\ - HP 11-30 (\X2\5E266709\X0\ EOS P 396 3D \X2\62535370673A\X0\)',
(#473));
#473=FILL_AREA_STYLE_COLOUR(
'PA 11 - \X2\5C3C9F99\X0\ - HP 11-30 (\X2\5E266709\X0\ EOS P 396 3D \X2\62535370673A\X0\)',
#474);
#474=COLOUR_RGB(
'PA 11 - \X2\5C3C9F99\X0\ - HP 11-30 (\X2\5E266709\X0\ EOS P 396 3D \X2\62535370673A\X0\)',
0.247058823529412,0.247058823529412,0.247058823529412);
ENDSEC;
END-ISO-10303-21;
